# xmcd
#
# Track frame offsets: 
#        150
#        21610
#        40139
#        56781
#        74145
#        90563
#        113046
#        135525
#        156931
#
# Disc length: 2334 seconds
#
# Revision: 0
# Processed by: cddbd v1.5.2PL0 Copyright (c) Steve Scherf et al.
# Submitted via: ExactAudioCopy v1.0b3
#
DISCID=81091c09
DTITLE=Dazz Band - Keep It Live
DYEAR=1982
DGENRE=Funk
TTITLE0=Let It Whip
TTITLE1=Gamble With My Love
TTITLE2=I'll Keep On Lovin' You
TTITLE3=Just Can't Wait 'Till The Night
TTITLE4=Shake What You Got
TTITLE5=Keep It Live (On The K.I.L.)
TTITLE6=Just Believe In Love
TTITLE7=Can We Dance
TTITLE8=Let Me Love You Until
EXTD=
EXTT0=
EXTT1=
EXTT2=
EXTT3=
EXTT4=
EXTT5=
EXTT6=
EXTT7=
EXTT8=
PLAYORDER=
